<?xml version="1.0" encoding="UTF-8"?>
<svg version="1.1" xmlns="http://www.w3.org/2000/svg" width="512" height="512">
<path d="M0 0 C0.6276123 0.33870117 1.25522461 0.67740234 1.90185547 1.02636719 C12.5597427 6.87003043 21.78183487 14.11587123 31 22 C32.36705078 23.15242188 32.36705078 23.15242188 33.76171875 24.328125 C38.64430849 28.53925503 42.91172776 33.02089801 47 38 C47.4424707 38.53012695 47.88494141 39.06025391 48.34082031 39.60644531 C55.35010383 48.02221212 61.57924581 56.45947262 67 66 C67.64324219 67.07765625 68.28648437 68.1553125 68.94921875 69.265625 C83.0815036 93.60668563 89.15250145 121.55804345 90.19311523 149.43676758 C90.72546813 160.94416822 93.65372476 168.93412902 102 177 C104.60965605 179.37463517 107.30725417 181.60938595 110.0625 183.8125 C110.79766846 184.40925537 111.53283691 185.00601074 112.2902832 185.62084961 C117.60367343 189.92025593 122.96099663 194.16616636 128.35766602 198.3605957 C129.91014291 199.56728391 131.4551782 200.78352701 133 202 C133.54172852 202.41701172 134.08345703 202.83402344 134.64160156 203.26367188 C140.25371668 207.71100838 142.57139583 212.50993751 143.4375 219.5625 C142.5293603 226.69788332 140.62780514 230.9464097 135.05383301 235.52996826 C131.57209996 238.02201998 127.80591088 239.68483447 123.890625 241.3828125 C123.0419989 241.76436493 122.1933728 242.14591736 121.31903076 242.53903198 C118.63422179 243.74563526 115.94309818 244.93702463 113.25 246.125 C109.6869345 247.69837571 106.13085985 249.28627141 102.578125 250.8828125 C101.76249084 251.23707306 100.94685669 251.59133362 100.10650635 251.95632935 C94.58004394 254.34163956 94.58004394 254.34163956 91 259 C90.54972325 261.32542138 90.54972325 261.32542138 90.59375 263.80859375 C90.56087891 265.17661133 90.56087891 265.17661133 90.52734375 266.57226562 C90.51380859 267.99055664 90.51380859 267.99055664 90.5 269.4375 C90.38878069 281.04402932 90.38878069 281.04402932 87 285 C85.0608782 286.77577858 83.07977656 288.38239601 81 290 C81.28875 290.98097656 81.5775 291.96195312 81.875 292.97265625 C85.85457735 307.1234453 85.25948678 319.86000218 83.75 334.375 C83.64099365 335.48085449 83.5319873 336.58670898 83.41967773 337.72607422 C82.20838219 348.236661 79.13679175 356.8996437 71 364 C61.47291773 370.17269157 52.40328269 370.1574219 41.375 370.16796875 C40.15530518 370.17129715 38.93561035 370.17462555 37.67895508 370.17805481 C35.10026424 370.18310772 32.52156688 370.18546364 29.94287109 370.18530273 C26.04122815 370.18747702 22.13987379 370.20561692 18.23828125 370.22460938 C1.1267447 370.26645257 -13.72698552 369.6407941 -30 364 C-30.00586624 365.00367111 -30.01173248 366.00734222 -30.01777649 367.04142761 C-30.07500248 376.50250807 -30.14776348 385.96335865 -30.23571491 395.42420483 C-30.28043244 400.28807606 -30.31968556 405.15186327 -30.34643555 410.01586914 C-30.37245468 414.71037754 -30.41284731 419.40456282 -30.46318626 424.09887123 C-30.47986437 425.88936658 -30.49137277 427.67991782 -30.49761391 429.47047997 C-30.50724478 431.97960618 -30.53529128 434.48790399 -30.56762695 436.99682617 C-30.56619186 437.73625961 -30.56475677 438.47569305 -30.5632782 439.23753357 C-30.6442689 443.6844112 -31.22194917 446.49949878 -34 450 C-37.91084024 453.76633425 -40.35737004 454.50109947 -45.74900818 454.50793457 C-46.74749482 454.51729451 -46.74749482 454.51729451 -47.76615292 454.52684355 C-49.9895666 454.5427579 -52.21188154 454.53017661 -54.43530273 454.51757812 C-56.03220254 454.52300004 -57.62909733 454.53012309 -59.22598267 454.53881836 C-63.55872074 454.55704807 -67.89107765 454.54998535 -72.22382236 454.53730202 C-76.76007024 454.52717074 -81.29628562 454.53656821 -85.83253479 454.54284668 C-93.45132298 454.55012346 -101.06995606 454.54053538 -108.6887207 454.52148438 C-117.49284125 454.49972335 -126.29659116 454.50676122 -135.1007027 454.52879 C-142.66265037 454.54695247 -150.22448657 454.54949795 -157.78644902 454.53903532 C-162.3015313 454.53280403 -166.81643949 454.53195454 -171.33151054 454.54518127 C-175.57764497 454.55675124 -179.82330253 454.54869336 -184.06938553 454.52560425 C-185.62620439 454.52032291 -187.1830635 454.52182114 -188.73986626 454.53065491 C-190.86845209 454.54161788 -192.99551866 454.52784066 -195.12400818 454.50793457 C-196.31400138 454.50642647 -197.50399458 454.50491837 -198.73004818 454.50336456 C-203.69087947 453.73971213 -206.84623123 451.45151556 -209.9375 447.5625 C-213.16942057 436.72606043 -208.70278814 422.72800681 -206.74593925 411.84128761 C-206.17154363 408.63986942 -205.60669527 405.43689515 -205.04444885 402.23332214 C-203.44629052 393.13345011 -201.83644031 384.03571084 -200.20825195 374.94116211 C-199.20836584 369.35224787 -198.22372294 363.76081612 -197.24815559 358.16760826 C-196.87709645 356.05745154 -196.50046354 353.94826594 -196.11776543 351.84018898 C-191.84583491 328.29069606 -190.01180982 305.89902224 -204 285 C-206.81762085 281.48339244 -209.89124966 278.25886134 -213 275 C-244.85832831 240.35716811 -262.53424078 195.62048976 -261.28515625 148.3515625 C-259.5414315 109.14329138 -246.13431916 70.68969473 -220 41 C-219.27039063 40.16082031 -218.54078125 39.32164063 -217.7890625 38.45703125 C-186.74429786 3.32742915 -144.4075864 -18.52086485 -97.41650391 -21.85498047 C-63.03670753 -23.91818506 -30.19161925 -16.35285004 0 0 Z " fill="#6FD5F7" transform="translate(322,58)"/>
<path d="M0 0 C10.41587553 4.46394665 15.82626818 13.84578668 20 24 C23.07103537 35.5996336 21.17013137 48.016415 15.875 58.625 C12.80781396 63.81201492 8.62251527 68.1584991 4 72 C3.34 72 2.68 72 2 72 C2 85.53 2 99.06 2 113 C5.3 113.99 8.6 114.98 12 116 C14.84062712 117.93679122 17.38317151 119.81492188 20 122 C21.38800528 123.09334494 22.78379432 124.17688669 24.1875 125.25 C24.79980469 125.72953125 25.41210938 126.2090625 26.04296875 126.703125 C30.31335086 129.53299897 33.93177721 130.19212971 39 130.3125 C47.72120217 130.84827351 55.2976906 134.02878532 63 138 C63.49628906 137.54109375 63.99257813 137.0821875 64.50390625 136.609375 C71.28535451 130.48419593 76.19781681 126.51492625 85.66796875 126.6640625 C88.1416145 127.02040008 89.84476223 127.76135761 92 129 C94.80111854 123.0900643 97.54244423 117.17671737 100.00390625 111.1171875 C100.34550781 110.28098877 100.68710937 109.44479004 101.0390625 108.58325195 C101.70847466 106.93447319 102.36901574 105.28205776 103.01953125 103.62573242 C105.32575185 97.9623777 107.78576026 93.1594698 113.01171875 89.6484375 C118.16754963 87.9669681 124.00605001 88.11225087 128.875 90.5625 C132.93092554 93.72612192 135.55134552 96.70040713 136.26245117 101.93017578 C136.35991212 108.56531746 134.77852292 114.3679422 132.875 120.6875 C132.22809205 122.90333238 131.5822803 125.11948506 130.9375 127.3359375 C130.61136719 128.44678711 130.28523438 129.55763672 129.94921875 130.70214844 C128.77393434 134.78541536 127.6922574 138.88969638 126.61621094 143 C123.01629925 156.65974394 118.90383417 167.82586549 110 179 C109.51789063 179.64710938 109.03578125 180.29421875 108.5390625 180.9609375 C100.95851618 190.64475678 89.3962118 196.20550262 78.6875 201.75 C76.82438498 202.72216542 74.96267225 203.69687361 73.10273743 204.67510986 C71.43010177 205.55375409 69.75362609 206.42507714 68.0769043 207.29589844 C59.34863239 212.12993303 54.68883064 217.20761067 50.5 226.1875 C47.93252078 231.54464415 45.17677484 234.40659323 39.79328918 237.10684204 C36.27269787 238.23255583 32.96421245 238.2952077 29.30737305 238.29052734 C28.54896118 238.29724457 27.79054932 238.30396179 27.00915527 238.31088257 C24.50994251 238.32982975 22.01099881 238.33378523 19.51171875 238.3359375 C17.76682934 238.34236824 16.021941 238.34909681 14.27705383 238.35610962 C10.62128196 238.36807456 6.96560452 238.3717913 3.30981445 238.37060547 C-1.36072399 238.37040245 -6.03065281 238.39769063 -10.70104694 238.43214989 C-14.30515795 238.45445571 -17.90912318 238.45844187 -21.51329613 238.45738602 C-23.23438808 238.45973696 -24.95548436 238.46853185 -26.67650795 238.48405075 C-29.09116135 238.50378395 -31.5045123 238.49784477 -33.91918945 238.48583984 C-34.62128036 238.49707886 -35.32337128 238.50831787 -36.04673767 238.51989746 C-42.74846323 238.4357965 -47.83899675 236.05809833 -52.625 231.5 C-55.50942275 227.73102094 -57.29666101 223.32983337 -59.1796875 219 C-63.81548375 211.35988945 -71.47783576 207.92812408 -79.25 204.0625 C-91.45667605 197.82565893 -102.1243332 191.67204481 -112 182 C-112.62648438 181.40960938 -113.25296875 180.81921875 -113.8984375 180.2109375 C-122.75888158 171.10993838 -127.4728829 158.19298993 -130.46972656 146.10107422 C-131.58145402 141.69613569 -132.80378016 137.32007483 -134 132.9375 C-134.25620117 131.98576904 -134.51240234 131.03403809 -134.77636719 130.0534668 C-136.17667294 124.87762476 -137.69036109 119.7772601 -139.375 114.6875 C-141.40182565 108.16418718 -142.49272177 102.93015756 -139.3125 96.6875 C-136.28956376 93.17435788 -132.88736561 89.30028602 -128.046875 88.796875 C-122.9146613 88.69213594 -119.37244164 89.01878979 -115 92 C-111.25196434 96.06754398 -108.99278572 99.68517971 -106.88671875 104.859375 C-106.62744095 105.48982727 -106.36816315 106.12027954 -106.10102844 106.76983643 C-105.5608959 108.08879494 -105.02587956 109.40985953 -104.49584961 110.73291016 C-103.68232638 112.76290982 -102.85333556 114.78604403 -102.02148438 116.80859375 C-98 126.67022728 -98 126.67022728 -98 129 C-97.43539062 128.67902344 -96.87078125 128.35804688 -96.2890625 128.02734375 C-91.45022569 125.85564737 -86.24320496 126.21439132 -81.30078125 127.9453125 C-77.38911569 129.80466922 -74.09387335 131.63257723 -71.1875 134.875 C-70.465625 135.57625 -69.74375 136.2775 -69 137 C-65.17171516 136.64312599 -62.12715776 135.20205398 -58.6875 133.5625 C-53.64460839 131.38077928 -49.15362243 130.45850523 -43.75 129.9375 C-33.51140657 128.89881944 -28.5783135 125.73849545 -21.1015625 118.83984375 C-16.85394897 115.12120811 -13.54083417 113.85125277 -8 114 C-7.94503371 108.14570801 -7.94258542 102.29456275 -7.98779297 96.44018555 C-7.99588001 94.45093456 -7.9898751 92.46157249 -7.96923828 90.47241211 C-7.94196648 87.60384894 -7.96617452 84.73950969 -8 81.87109375 C-7.97087524 80.54723915 -7.97087524 80.54723915 -7.94116211 79.19664001 C-8.03078039 75.31797672 -8.20672319 72.93117612 -10.77775574 69.91320801 C-12.78639705 68.16146861 -14.85890821 66.58403724 -17 65 C-21.59376101 59.6030077 -24.11069012 53.76889439 -26 47 C-26.33 46.01 -26.66 45.02 -27 44 C-28.01304703 30.44842009 -25.55638774 19.76644997 -17 9 C-8.17719298 -0.8177193 -8.17719298 -0.8177193 0 0 Z " fill="#040404" transform="translate(238,80)"/>
<path d="M0 0 C0.6276123 0.33870117 1.25522461 0.67740234 1.90185547 1.02636719 C12.5597427 6.87003043 21.78183487 14.11587123 31 22 C32.36705078 23.15242188 32.36705078 23.15242188 33.76171875 24.328125 C38.64430849 28.53925503 42.91172776 33.02089801 47 38 C47.4424707 38.53012695 47.88494141 39.06025391 48.34082031 39.60644531 C55.35010383 48.02221212 61.57924581 56.45947262 67 66 C67.64324219 67.07765625 68.28648437 68.1553125 68.94921875 69.265625 C83.0815036 93.60668563 89.15250145 121.55804345 90.19311523 149.43676758 C90.72546813 160.94416822 93.65372476 168.93412902 102 177 C104.60965605 179.37463517 107.30725417 181.60938595 110.0625 183.8125 C110.79766846 184.40925537 111.53283691 185.00601074 112.2902832 185.62084961 C117.60367343 189.92025593 122.96099663 194.16616636 128.35766602 198.3605957 C129.91014291 199.56728391 131.4551782 200.78352701 133 202 C133.54172852 202.41701172 134.08345703 202.83402344 134.64160156 203.26367188 C140.25371668 207.71100838 142.57139583 212.50993751 143.4375 219.5625 C142.5293603 226.69788332 140.62780514 230.9464097 135.05383301 235.52996826 C131.57209996 238.02201998 127.80591088 239.68483447 123.890625 241.3828125 C123.0419989 241.76436493 122.1933728 242.14591736 121.31903076 242.53903198 C118.63422179 243.74563526 115.94309818 244.93702463 113.25 246.125 C109.6869345 247.69837571 106.13085985 249.28627141 102.578125 250.8828125 C101.76249084 251.23707306 100.94685669 251.59133362 100.10650635 251.95632935 C94.58004394 254.34163956 94.58004394 254.34163956 91 259 C90.54972325 261.32542138 90.54972325 261.32542138 90.59375 263.80859375 C90.56087891 265.17661133 90.56087891 265.17661133 90.52734375 266.57226562 C90.51380859 267.99055664 90.51380859 267.99055664 90.5 269.4375 C90.38878069 281.04402932 90.38878069 281.04402932 87 285 C85.0608782 286.77577858 83.07977656 288.38239601 81 290 C81.28875 290.98097656 81.5775 291.96195312 81.875 292.97265625 C85.85457735 307.1234453 85.25948678 319.86000218 83.75 334.375 C83.64099365 335.48085449 83.5319873 336.58670898 83.41967773 337.72607422 C82.20838219 348.236661 79.13679175 356.8996437 71 364 C61.47291773 370.17269157 52.40328269 370.1574219 41.375 370.16796875 C40.15530518 370.17129715 38.93561035 370.17462555 37.67895508 370.17805481 C35.10026424 370.18310772 32.52156688 370.18546364 29.94287109 370.18530273 C26.04122815 370.18747702 22.13987379 370.20561692 18.23828125 370.22460938 C1.1267447 370.26645257 -13.72698552 369.6407941 -30 364 C-30.00586624 365.00367111 -30.01173248 366.00734222 -30.01777649 367.04142761 C-30.07500248 376.50250807 -30.14776348 385.96335865 -30.23571491 395.42420483 C-30.28043244 400.28807606 -30.31968556 405.15186327 -30.34643555 410.01586914 C-30.37245468 414.71037754 -30.41284731 419.40456282 -30.46318626 424.09887123 C-30.47986437 425.88936658 -30.49137277 427.67991782 -30.49761391 429.47047997 C-30.50724478 431.97960618 -30.53529128 434.48790399 -30.56762695 436.99682617 C-30.56619186 437.73625961 -30.56475677 438.47569305 -30.5632782 439.23753357 C-30.6442689 443.6844112 -31.22194917 446.49949878 -34 450 C-37.91084024 453.76633425 -40.35737004 454.50109947 -45.74900818 454.50793457 C-46.74749482 454.51729451 -46.74749482 454.51729451 -47.76615292 454.52684355 C-49.9895666 454.5427579 -52.21188154 454.53017661 -54.43530273 454.51757812 C-56.03220254 454.52300004 -57.62909733 454.53012309 -59.22598267 454.53881836 C-63.55872074 454.55704807 -67.89107765 454.54998535 -72.22382236 454.53730202 C-76.76007024 454.52717074 -81.29628562 454.53656821 -85.83253479 454.54284668 C-93.45132298 454.55012346 -101.06995606 454.54053538 -108.6887207 454.52148438 C-117.49284125 454.49972335 -126.29659116 454.50676122 -135.1007027 454.52879 C-142.66265037 454.54695247 -150.22448657 454.54949795 -157.78644902 454.53903532 C-162.3015313 454.53280403 -166.81643949 454.53195454 -171.33151054 454.54518127 C-175.57764497 454.55675124 -179.82330253 454.54869336 -184.06938553 454.52560425 C-185.62620439 454.52032291 -187.1830635 454.52182114 -188.73986626 454.53065491 C-190.86845209 454.54161788 -192.99551866 454.52784066 -195.12400818 454.50793457 C-196.31400138 454.50642647 -197.50399458 454.50491837 -198.73004818 454.50336456 C-203.69087947 453.73971213 -206.84623123 451.45151556 -209.9375 447.5625 C-213.16942057 436.72606043 -208.70278814 422.72800681 -206.74593925 411.84128761 C-206.17154363 408.63986942 -205.60669527 405.43689515 -205.04444885 402.23332214 C-203.44629052 393.13345011 -201.83644031 384.03571084 -200.20825195 374.94116211 C-199.20836584 369.35224787 -198.22372294 363.76081612 -197.24815559 358.16760826 C-196.87709645 356.05745154 -196.50046354 353.94826594 -196.11776543 351.84018898 C-191.84583491 328.29069606 -190.01180982 305.89902224 -204 285 C-206.81762085 281.48339244 -209.89124966 278.25886134 -213 275 C-244.85832831 240.35716811 -262.53424078 195.62048976 -261.28515625 148.3515625 C-259.5414315 109.14329138 -246.13431916 70.68969473 -220 41 C-219.27039063 40.16082031 -218.54078125 39.32164063 -217.7890625 38.45703125 C-186.74429786 3.32742915 -144.4075864 -18.52086485 -97.41650391 -21.85498047 C-63.03670753 -23.91818506 -30.19161925 -16.35285004 0 0 Z M-126 -7 C-126.86286621 -6.75330566 -127.72573242 -6.50661133 -128.61474609 -6.25244141 C-151.69159712 0.52214687 -172.8791587 11.04578103 -191 27 C-191.85078125 27.74121094 -192.7015625 28.48242188 -193.578125 29.24609375 C-196.08471581 31.46434973 -198.54854412 33.72106884 -201 36 C-201.71542969 36.6496875 -202.43085938 37.299375 -203.16796875 37.96875 C-230.66751394 64.01567805 -248.9875673 104.10848851 -250.28860474 141.9238739 C-250.36956135 145.40800948 -250.38607135 148.89003533 -250.375 152.375 C-250.37345917 153.11500244 -250.37191833 153.85500488 -250.37033081 154.61743164 C-250.156752 198.00361035 -233.89843867 236.64243797 -204.1328125 267.96484375 C-189.32754083 284.10054305 -181.29051359 303.82845778 -181.8359375 325.84375 C-182.11310616 331.17594708 -182.51150808 336.16489823 -183.88793945 341.33569336 C-185.34239574 347.12338024 -186.24583121 353.00090979 -187.20703125 358.88671875 C-187.51793953 360.76421562 -187.51793953 360.76421562 -187.83512878 362.67964172 C-188.38622975 366.01027917 -188.93462526 369.34133722 -189.48150635 372.67266846 C-190.23435724 377.25543828 -190.99172209 381.83746337 -191.74923706 386.41946411 C-192.17947056 389.02286 -192.60860863 391.62643715 -193.03665161 394.23019409 C-194.13308735 400.87510996 -195.25851879 407.51265099 -196.43896484 414.14306641 C-196.67351431 415.46880955 -196.90802718 416.79455917 -197.14250183 418.12031555 C-197.58440779 420.60737065 -198.03190823 423.09344076 -198.48603821 425.57829285 C-199.53349477 431.48413785 -200.2561354 437.00128133 -200 443 C-197.23038781 444.3848061 -194.98911946 444.12914913 -191.8885498 444.13371277 C-189.93247047 444.14011024 -189.93247047 444.14011024 -187.93687439 444.14663696 C-186.48330685 444.14628742 -185.02973934 444.14582587 -183.57617188 444.14526367 C-182.05204689 444.14825436 -180.52792266 444.15165668 -179.00379944 444.15544128 C-174.85721758 444.16429367 -170.71065633 444.16661989 -166.56406593 444.16725707 C-163.10706027 444.16820504 -159.65005944 444.17188196 -156.19305563 444.17542917 C-148.04064789 444.18357807 -139.88825119 444.18601296 -131.73583984 444.18530273 C-123.31409119 444.1847015 -114.8924065 444.19526148 -106.47067404 444.2110464 C-99.24942773 444.22410106 -92.02820239 444.22948752 -84.80694437 444.22884732 C-80.48983928 444.22859177 -76.17279102 444.23147467 -71.85569763 444.24202538 C-67.79771328 444.25167181 -63.73984052 444.25180947 -59.68185234 444.24450874 C-58.18946101 444.24345865 -56.69706286 444.24585079 -55.2046833 444.2518692 C-53.17361947 444.25953187 -51.14251798 444.25377109 -49.1114502 444.24723816 C-47.97286812 444.24778293 -46.83428604 444.24832769 -45.66120148 444.24888897 C-42.84563797 444.27109768 -42.84563797 444.27109768 -41 442 C-40.81200709 439.31936573 -40.74818009 436.74290542 -40.77294922 434.06201172 C-40.77265717 433.24241974 -40.77236511 432.42282776 -40.77206421 431.57839966 C-40.77346056 428.86205557 -40.78903599 426.14598382 -40.8046875 423.4296875 C-40.80841655 421.54924672 -40.81126403 419.66880401 -40.81326294 417.7883606 C-40.82090793 412.83334002 -40.84056381 407.87843626 -40.8626709 402.92346191 C-40.88311072 397.8695636 -40.89226066 392.81564646 -40.90234375 387.76171875 C-40.92380891 377.84109445 -40.95795526 367.92055693 -41 358 C-52.46935255 352.6423838 -52.46935255 352.6423838 -63.95703125 347.32421875 C-65.91799966 346.4168525 -67.87860799 345.50871242 -69.83911133 344.6003418 C-71.17728795 343.98133371 -72.51617965 343.36386958 -73.85571289 342.74780273 C-75.82889918 341.8398485 -77.79943643 340.92635764 -79.76953125 340.01171875 C-80.92042236 339.48022217 -82.07131348 338.94872559 -83.25708008 338.40112305 C-86 337 -86 337 -88 335 C-87.625 332.375 -87.625 332.375 -87 330 C-82.2005006 328.384894 -79.05900635 329.91860924 -74.734375 332.015625 C-74.0319014 332.34268936 -73.3294278 332.66975372 -72.60566711 333.00672913 C-71.09803482 333.71045509 -69.59324914 334.42030579 -68.09109497 335.13565063 C-65.73504707 336.25711752 -63.37179255 337.36175214 -61.00561523 338.46166992 C-57.83015531 339.93838025 -54.65701389 341.41987059 -51.48583984 342.90576172 C-45.37050496 345.76615243 -39.22788811 348.56143346 -33.0625 351.3125 C-32.10762695 351.74916992 -31.15275391 352.18583984 -30.16894531 352.63574219 C-18.3265607 357.90507934 -7.36830726 359.46937049 5.546875 359.43359375 C7.01271808 359.43816846 8.47855903 359.4434778 9.94439697 359.44947815 C12.99345708 359.45834201 16.04225426 359.45606033 19.09130859 359.44604492 C22.98039549 359.43450824 26.86858065 359.45487162 30.75754929 359.48396206 C33.7757737 359.50237426 36.79378334 359.50202265 39.81204987 359.49632454 C41.24565149 359.49617223 42.67926851 359.5021409 44.11281586 359.51461601 C56.29530816 359.65331666 56.29530816 359.65331666 66.50726318 353.58811951 C71.72114907 347.77237636 72.46513609 341.84281103 73.125 334.375 C73.2077417 333.45291748 73.2904834 332.53083496 73.37573242 331.58081055 C75.05202927 313.61947572 75.05202927 313.61947572 71.69921875 296.12890625 C70.46648734 292.37561788 69.81079966 288.83186777 71 285 C72.7578125 283.5859375 72.7578125 283.5859375 74.9375 282.1875 C77.45307679 280.32835218 78.80720785 278.9933929 79.41259766 275.87402344 C79.6947686 272.39322861 79.76741468 268.95081542 79.69897461 265.4597168 C79.6359565 259.53090512 80.29979385 254.80193196 84 250 C88.55916644 245.65576262 93.27525806 243.22325911 99.01171875 240.71484375 C100.75586796 239.92905552 102.50000833 239.14324765 104.24414062 238.35742188 C106.97501104 237.141156 109.70751047 235.92863308 112.44067383 234.7175293 C115.09347862 233.53810888 117.74017689 232.34573604 120.38671875 231.15234375 C121.20548996 230.79494614 122.02426117 230.43754852 122.86784363 230.06932068 C128.37692752 227.65425277 128.37692752 227.65425277 132 223 C132.66676878 219.54250051 132.66676878 219.54250051 132 216 C128.66280307 212.28865079 124.8789042 209.08146051 121.0625 205.875 C120.50328857 205.40271973 119.94407715 204.93043945 119.36791992 204.44384766 C115.25410352 200.99310786 111.05278272 197.66828818 106.8125 194.375 C94.56912449 184.81360307 82.72360585 175.46124685 80.46337891 159.12036133 C80.37290937 157.77497707 80.29440221 156.42874626 80.2265625 155.08203125 C80.12663207 153.57539583 80.02602078 152.06880545 79.92480469 150.56225586 C79.87658569 149.78623016 79.8283667 149.01020447 79.77868652 148.21066284 C78.8522256 133.75393559 77.40721824 119.87020857 73 106 C72.75266113 105.20964355 72.50532227 104.41928711 72.25048828 103.60498047 C64.3653459 79.05857678 50.97204356 57.40541199 33 39 C32.09080083 38.0197543 31.18326507 37.03796331 30.27734375 36.0546875 C14.64858562 19.39671847 -5.76719078 7.12641632 -27 -1 C-27.66161133 -1.25378418 -28.32322266 -1.50756836 -29.00488281 -1.76904297 C-58.8082025 -12.9921375 -95.14288487 -15.97534311 -126 -7 Z " fill="#010202" transform="translate(322,58)"/>
<path d="M0 0 C3.49367487 2.87432449 4.72295928 6.71745382 6.328125 10.82421875 C6.64021912 11.60328079 6.95231323 12.38234283 7.27386475 13.18501282 C8.27320478 15.68300503 9.26211074 18.18495982 10.25 20.6875 C15.87257783 34.84741134 15.87257783 34.84741134 21.76953125 48.89453125 C22.04464539 49.54121262 22.31975952 50.18789398 22.60321045 50.85417175 C24.98195984 56.29919154 27.98919658 60.65424726 32 65 C32.67417969 65.77601563 33.34835938 66.55203125 34.04296875 67.3515625 C36.79814771 70.43418561 36.79814771 70.43418561 40 73 C42.69618365 72.80760545 42.69618365 72.80760545 45 72 C45.77588695 69.68749737 45.77588695 69.68749737 46 67 C44.85206939 64.9805079 44.85206939 64.9805079 43 63.25 C31.53211009 51.07110092 31.53211009 51.07110092 29 43 C29.24091283 40.71132815 29.38430857 39.61569143 31 38 C33.93413866 37.4990495 36.09571024 37.50858196 38.75390625 38.953125 C42.49146907 41.6685151 45.79972756 44.75286486 49.12792969 47.95019531 C58.08751487 56.4772891 68.04922239 61.74922232 79.32275391 66.65820312 C95.16101491 73.58001194 104.97690991 81.44804729 112.140625 97.56640625 C114.73003228 104.89913686 115.26353293 111.27412531 115.125 119 C115.11597656 119.96550781 115.10695313 120.93101562 115.09765625 121.92578125 C115.07430635 124.28412099 115.04156047 126.64192286 115 129 C110.24949181 129.09913574 105.49959024 129.17159264 100.74829102 129.21972656 C99.13327542 129.23979892 97.51833211 129.2670633 95.90356445 129.30175781 C93.57745499 129.35047215 91.25230907 129.37301154 88.92578125 129.390625 C88.20787918 129.41127014 87.48997711 129.43191528 86.75032043 129.45318604 C83.11176904 129.45480186 81.15926964 129.10333771 78.07666016 127.10327148 C75.99862882 124.99861125 75.06837606 123.55989283 74.0625 120.8125 C72.68318612 117.4846316 71.20123828 114.38429412 69.3125 111.3125 C68.89613281 110.62800781 68.47976562 109.94351563 68.05078125 109.23828125 C60.75299484 101.27326865 49.54186121 97.07327229 40.03710938 92.38671875 C22.82890826 83.69062162 9.96756967 71.79538496 3.734375 53.23046875 C2.38625842 48.84829436 1.18849629 44.42762862 0 40 C-0.77806226 37.13361458 -1.55765437 34.26764987 -2.33789062 31.40185547 C-2.84855205 29.51918743 -3.35530048 27.63545198 -3.85742188 25.75048828 C-5.20206598 20.73938653 -6.67745399 15.82137519 -8.40820312 10.92919922 C-9.25723794 8.16142978 -9.40845231 5.85916617 -9 3 C-6.79086995 -0.68188342 -4.01844539 -0.50230567 0 0 Z " fill="#F5CCB1" transform="translate(116,179)"/>
<path d="M0 0 C3.0625 0.3125 3.0625 0.3125 4.75390625 1.57421875 C6.91057096 4.43904202 6.15803965 6.72454823 5.69921875 10.1484375 C4.65106302 15.35706415 3.08307841 20.39377582 1.51953125 25.46484375 C0.17183232 29.86428126 -1.01090714 34.29797224 -2.17871094 38.74804688 C-7.68633768 59.63024557 -15.39551184 76.8344276 -34.6875 88.1875 C-39.53896401 90.98503156 -44.47116157 93.60281536 -49.4609375 96.14453125 C-50.39196289 96.62100098 -51.32298828 97.0974707 -52.28222656 97.58837891 C-54.08690313 98.50466271 -55.89847594 99.40753443 -57.71777344 100.29443359 C-66.55721114 104.74813721 -71.88802575 110.12231694 -76.0625 119.0625 C-78.30248361 123.85175366 -79.9786332 127.02742761 -84.9375 129.3125 C-88.44262695 129.65307617 -88.44262695 129.65307617 -92.42578125 129.60546875 C-93.12897995 129.60122391 -93.83217865 129.59697906 -94.5566864 129.59260559 C-96.78819131 129.5759006 -99.01877113 129.53826614 -101.25 129.5 C-102.7688671 129.48494248 -104.28774846 129.47125594 -105.80664062 129.45898438 C-109.51722434 129.42602473 -113.22727178 129.37430016 -116.9375 129.3125 C-117.5757247 110.15839488 -117.08741957 94.96259056 -103.7890625 79.875 C-97.65721011 73.84500562 -90.7268903 70.54630604 -82.95800781 67.19824219 C-70.09560584 61.55967351 -58.37925008 55.14911226 -48.55078125 44.921875 C-44.92988235 41.30974341 -41.77754153 38.55552435 -36.625 37.875 C-33.9375 38.3125 -33.9375 38.3125 -31.9375 40.3125 C-31.9375 47.29067066 -36.50753053 53.63908275 -41.04296875 58.62890625 C-42.40942755 59.98043107 -43.79455008 61.3135213 -45.203125 62.62109375 C-47.14374616 64.39610373 -47.14374616 64.39610373 -48.9375 67.3125 C-48.6253236 69.95882287 -48.6253236 69.95882287 -47.9375 72.3125 C-45.79695818 73.36300452 -45.79695818 73.36300452 -42.9375 73.3125 C-31.81052912 65.82319268 -25.68074156 53.71445691 -21 41.5625 C-20.49819923 40.30155262 -19.99442045 39.04139079 -19.48876953 37.78198242 C-18.46294979 35.2221314 -17.44548082 32.65922819 -16.43505859 30.09326172 C-14.12605892 24.24373333 -11.72108518 18.43407156 -9.3125 12.625 C-8.8987915 11.61018555 -8.48508301 10.59537109 -8.05883789 9.54980469 C-7.4844397 8.15810059 -7.4844397 8.15810059 -6.8984375 6.73828125 C-6.40029541 5.52265503 -6.40029541 5.52265503 -5.89208984 4.2824707 C-4.36505199 1.13114884 -3.52628131 0.37513631 0 0 Z " fill="#F6CDB1" transform="translate(357.9375,178.6875)"/>
<path d="M0 0 C3.11264003 1.7705503 5.53283675 3.98005491 8.125 6.4375 C16.61748423 14.20660397 26.11945038 16.04836778 37.2109375 16.9453125 C40.98443129 17.51656636 43.58237322 18.61413017 46.875 20.5 C45.875 23.5 45.875 23.5 42.76953125 25.33203125 C41.41427509 26.00324592 40.05314356 26.66267997 38.6875 27.3125 C37.96933105 27.6643335 37.25116211 28.01616699 36.51123047 28.37866211 C31.90247387 30.61101274 27.2384946 32.62331409 22.5 34.5625 C7.42724853 40.90711666 -1.12424308 50.68051078 -9.125 64.5 C-11.5886984 61.49407738 -13.824448 58.48647631 -15.875 55.1875 C-24.52858583 42.16385333 -36.37724625 36.56462472 -50.46166992 30.83422852 C-56.05609524 28.52826776 -61.11178077 25.89368612 -66.125 22.5 C-65.63 21.015 -65.63 21.015 -65.125 19.5 C-60.00861575 17.26739596 -55.04914709 16.30437187 -49.56176758 15.52832031 C-37.95866473 13.86272324 -30.53060169 10.22036258 -22.01171875 2.015625 C-15.96924007 -2.83837444 -6.94720942 -3.14643152 0 0 Z " fill="#734D33" transform="translate(245.125,204.5)"/>
<path d="M0 0 C10.59773661 3.57710717 17.47862584 9.56871315 22.9765625 19.31640625 C24.90753299 23.96623486 25.37187996 28.32949286 25.4140625 33.31640625 C25.44693359 34.0021875 25.47980469 34.68796875 25.51367188 35.39453125 C25.55438894 39.27375681 25.01506424 41.76245631 22.63671875 44.75390625 C18.56233764 48.6787139 15.11406423 48.60565046 9.7265625 48.52734375 C-0.10043598 47.7735683 -8.55360544 43.27729903 -15.2734375 36.12890625 C-21.67328804 27.92351128 -23.86170258 20.05514287 -23.5234375 9.6640625 C-22.82563386 4.99204905 -21.65497884 3.25622543 -18.0234375 0.31640625 C-12.88623663 -2.25219418 -5.4333952 -1.22848083 0 0 Z " fill="#030505" transform="translate(197.0234375,139.68359375)"/>
<path d="M0 0 C0.66 0.556875 1.32 1.11375 2 1.6875 C2.52722656 2.06132812 3.05445313 2.43515625 3.59765625 2.8203125 C5.77063984 5.7135887 5.48921281 8.77281495 5.4375 12.25 C5.42775146 12.96945801 5.41800293 13.68891602 5.40795898 14.43017578 C5.07126474 24.59948316 1.44540375 31.14611893 -5.5625 38.48828125 C-9.07290484 41.65552152 -12.68706323 43.7954262 -17 45.6875 C-17.928125 46.120625 -18.85625 46.55375 -19.8125 47 C-25.82486946 48.29678557 -33.20377729 49.36007174 -38.625 45.875 C-41.61509164 43.12096823 -42.90963709 41.55435347 -43.3359375 37.46484375 C-43.46202976 25.06997499 -41.29831383 17.11372608 -32.57421875 7.95703125 C-24.05416322 0.44541932 -11.11443272 -4.86256432 0 0 Z " fill="#030505" transform="translate(291,140.3125)"/>
<path d="M0 0 C4.58606499 1.37661986 6.45227916 3.37730821 9.1875 7.25 C9.86167969 8.18328125 10.53585938 9.1165625 11.23046875 10.078125 C15.81609161 17.64997026 15.83084512 25.36267259 15 34 C13.07148827 41.49020179 9.67150713 48.6704538 3 53 C0.4375 53.375 0.4375 53.375 -2 52 C-8.57562136 46.47647805 -12.31222312 38.07160691 -13.44921875 29.6875 C-13.80847193 19.18244138 -11.20797985 12.18766084 -4.25 4.375 C-2.84670077 2.90379919 -1.43458234 1.44071304 0 0 Z " fill="#AFDE6B" transform="translate(234,90)"/>
<path d="M0 0 C2.6020749 2.11339254 3.8522668 3.80289414 4.9140625 6.98828125 C5.50468663 13.72139631 4.289122 19.08686142 0.9140625 24.98828125 C-3.17375316 29.69605 -7.75228247 32.60703879 -14.0234375 33.32421875 C-22.33462664 33.43022882 -22.33462664 33.43022882 -26.2734375 31.11328125 C-30.0419056 26.69507727 -29.53654009 22.25078482 -29.49609375 16.6171875 C-28.80836052 10.53238586 -26.04485428 6.52855034 -21.45703125 2.58984375 C-15.61127031 -1.54174669 -6.64468705 -3.22279765 0 0 Z " fill="#030606" transform="translate(297.0859375,95.01171875)"/>
<path d="M0 0 C6.7357338 0.07990194 11.25238587 1.31223624 16.1875 5.9609375 C21.33478982 11.62790562 22.8615738 16.30655558 22.69140625 23.94140625 C22.25662257 28.00161689 20.63027168 30.22090091 17.6875 32.9140625 C13.35797578 35.60498207 8.34745965 34.86155719 3.4375 34.3125 C-2.57418803 32.72469535 -5.88239848 29.26675607 -9.43359375 24.3125 C-12.47329809 18.92727985 -12.32440024 12.30939224 -11.5625 6.3125 C-10.13808534 3.86476939 -8.92499124 2.98353039 -6.5625 1.3125 C-4.79905058 -0.45094942 -2.39361557 0.05691952 0 0 Z " fill="#030606" transform="translate(180.5625,93.6875)"/>
<path d="M0 0 C2.45426089 0.08462969 3.85064617 0.20657309 6.0625 1.3125 C7.70233879 4.59217758 7.24095638 7.68388689 7.0625 11.3125 C8.320625 11.250625 9.57875 11.18875 10.875 11.125 C13.43955844 11.14315617 14.77713773 11.1609013 17.0625 12.375 C18.64683618 15.44465135 18.42498449 17.92931143 18.0625 21.3125 C17.0625 23.25 17.0625 23.25 15.0625 24.3125 C12.34367977 24.54845284 9.80292978 24.44727523 7.0625 24.3125 C7.124375 25.570625 7.18625 26.82875 7.25 28.125 C7.23184383 30.68955844 7.2140987 32.02713773 6 34.3125 C2.93034865 35.89683618 0.44568857 35.67498449 -2.9375 35.3125 C-4.8125 34.3125 -4.8125 34.3125 -5.9375 32.3125 C-6.47173546 29.63074378 -6.71321266 27.04880552 -6.9375 24.3125 C-8.030625 24.374375 -9.12375 24.43625 -10.25 24.5 C-13.9375 24.3125 -13.9375 24.3125 -15.8125 23.0625 C-17.12376396 21.02275607 -17.72332164 19.7398548 -17.9375 17.3125 C-17.125 14.625 -17.125 14.625 -15.9375 12.3125 C-12.98085481 10.8341774 -10.19520263 11.25217217 -6.9375 11.3125 C-6.88851562 10.68601562 -6.83953125 10.05953125 -6.7890625 9.4140625 C-6.71429688 8.59679687 -6.63953125 7.77953125 -6.5625 6.9375 C-6.45808594 5.71933594 -6.45808594 5.71933594 -6.3515625 4.4765625 C-5.56278965 0.35410818 -4.04722351 0.32120821 0 0 Z " fill="#F5C84B" transform="translate(78.9375,351.6875)"/>
<path d="M0 0 C7.57611546 -0.61097705 12.68272453 0.69798761 19 5 C24.46569151 9.71710712 27.57674939 14.922919 29 22 C29.25 25.5 29.25 25.5 29 28 C28 29 28 29 25 29.25 C17.85347892 29.1035549 11.73008255 26.60027963 6.50390625 21.75 C2.27618786 16.83047315 -0.15616284 10.77523576 -0.0625 4.3125 C-0.05347656 3.50425781 -0.04445312 2.69601563 -0.03515625 1.86328125 C-0.02355469 1.24839844 -0.01195312 0.63351563 0 0 Z " fill="#ADDB69" transform="translate(184,149)"/>
<path d="M0 0 C0.74871077 7.81986799 -0.53105203 13.48231518 -5 20 C-9.31640461 24.87005271 -14.78506537 28.69652471 -21.44140625 29.17578125 C-23.63749834 29.18609154 -25.80841829 29.13417847 -28 29 C-28.67053042 21.02813833 -27.97059382 15.42295877 -23 9 C-16.47623796 1.91838658 -9.51186604 -0.58235915 0 0 Z " fill="#ADDC6A" transform="translate(286,149)"/>
<path d="M0 0 C3 1 3 1 3.95703125 2.671875 C4.23933594 3.35765625 4.52164062 4.0434375 4.8125 4.75 C8.01853116 11.53852811 13.24123884 14.43167076 20 17 C20 17.66 20 18.32 20 19 C19.34773438 19.268125 18.69546875 19.53625 18.0234375 19.8125 C10.29759589 23.27659417 6.14734585 27.31488179 2.625 35 C2.41875 35.66 2.2125 36.32 2 37 C-0.75070359 35.6246482 -0.97558764 34.0460845 -2.1875 31.25 C-5.29600947 24.85012756 -8.88925708 22.18773821 -15.4375 19.6875 C-16.283125 19.460625 -17.12875 19.23375 -18 19 C-18 18.34 -18 17.68 -18 17 C-17.33613281 16.78085937 -16.67226563 16.56171875 -15.98828125 16.3359375 C-9.1489658 13.87977458 -5.34823175 11.74419179 -2.0390625 5.05859375 C-1.30630784 3.3947701 -0.64579708 1.69946599 0 0 Z " fill="#FC657D" transform="translate(335,0)"/>
<path d="M0 0 C0.99 0.33 1.98 0.66 3 1 C3.680625 2.3921875 3.680625 2.3921875 4.375 3.8125 C6.99335173 8.94849762 10.64220956 11.16304328 16 13 C16 13.66 16 14.32 16 15 C15.46890625 15.23074219 14.9378125 15.46148437 14.390625 15.69921875 C8.66783845 18.34130816 5.37892752 20.89741309 2.75 26.8125 C2.5025 27.534375 2.255 28.25625 2 29 C-1.68523007 27.15738497 -2.75164509 22.74506474 -4 19 C-6.29534258 17.86454438 -6.29534258 17.86454438 -9 17 C-10.66666667 16.33333333 -12.33333333 15.66666667 -14 15 C-14 14.34 -14 13.68 -14 13 C-12.948125 12.608125 -11.89625 12.21625 -10.8125 11.8125 C-6.04107836 9.75518662 -2.90833425 6.94643054 -0.6875 2.1875 C-0.460625 1.465625 -0.23375 0.74375 0 0 Z " fill="#88D146" transform="translate(87,50)"/>
<path d="M0 0 C2.5 1.5625 2.5 1.5625 4 4 C3.93913078 7.46954545 3.6274029 9.91947278 1.875 12.9375 C-1.22289358 14.69297303 -3.52844534 14.48723574 -7 14 C-9.5 11.9375 -9.5 11.9375 -11 9 C-10.9375 5.3125 -10.9375 5.3125 -10 2 C-6.2794164 -0.48038907 -4.40203429 -0.46337203 0 0 Z " fill="#FC647C" transform="translate(58,306)"/>
<path d="M0 0 C2.5 1.5625 2.5 1.5625 4 4 C3.93913078 7.46954545 3.6274029 9.91947278 1.875 12.9375 C-1.22289358 14.69297303 -3.52844534 14.48723574 -7 14 C-9.5 11.9375 -9.5 11.9375 -11 9 C-10.9375 5.3125 -10.9375 5.3125 -10 2 C-6.2794164 -0.48038907 -4.40203429 -0.46337203 0 0 Z " fill="#6FD6F9" transform="translate(386,50)"/>
<path d="M0 0 C0.50338797 5.28557366 -0.65323004 7.90950339 -4 12 C-7.21457266 14.35735328 -10.09660847 14.17742689 -14 14 C-14.61364554 6.75898264 -14.61364554 6.75898264 -11.625 3.0625 C-7.51092937 -0.16998406 -5.20565883 -0.09640109 0 0 Z " fill="#AAD768" transform="translate(292,104)"/>
<path d="M0 0 C8.17134516 0.19206153 8.17134516 0.19206153 11.5 3.4375 C13.78128579 7.33469656 14.09865772 9.46174493 14 14 C9.02666392 14.29254918 5.9563029 14.16504232 2 11 C-0.56452594 7.58063208 -0.15940162 4.14444215 0 0 Z " fill="#ABDA69" transform="translate(179,104)"/>
</svg>
